<svg xmlns="http://www.w3.org/2000/svg" width="30.302" height="26.93" viewBox="0 0 30.302 26.93">
  <path id="Icon_awesome-edit" data-name="Icon awesome-edit" d="M21.18,4.379l4.745,4.745a.514.514,0,0,1,0,.726l-11.49,11.49-4.882.542A1.023,1.023,0,0,1,8.422,20.75l.542-4.882,11.49-11.49A.514.514,0,0,1,21.18,4.379Zm8.522-1.2L27.135.607a2.058,2.058,0,0,0-2.9,0L22.369,2.469a.514.514,0,0,0,0,.726L27.114,7.94a.514.514,0,0,0,.726,0L29.7,6.078A2.058,2.058,0,0,0,29.7,3.174ZM20.2,18.215V23.57H3.367V6.736H15.456a.647.647,0,0,0,.447-.184l2.1-2.1a.631.631,0,0,0-.447-1.078H2.525A2.526,2.526,0,0,0,0,5.894V24.412a2.526,2.526,0,0,0,2.525,2.525H21.043a2.526,2.526,0,0,0,2.525-2.525v-8.3a.632.632,0,0,0-1.078-.447l-2.1,2.1A.647.647,0,0,0,20.2,18.215Z" transform="translate(0 -0.007)" fill="#9b9b9b"/>
</svg>
