<svg xmlns="http://www.w3.org/2000/svg" width="51.615" height="51.226" viewBox="0 0 51.615 51.226">
  <path id="Icon_metro-users" data-name="Icon metro-users" d="M36.981,43.693V41.051a14.8,14.8,0,0,0,5.741-11.9c0-7.957,0-14.408-8.612-14.408S25.5,21.2,25.5,29.154a14.8,14.8,0,0,0,5.741,11.9v2.642c-9.727.887-17.205,6.224-17.205,12.677H54.186C54.186,49.919,46.708,44.582,36.981,43.693ZM17.233,44.93a25.7,25.7,0,0,1,8.952-4.023,18.278,18.278,0,0,1-1.813-2.952,20.019,20.019,0,0,1-2.084-8.8,31.517,31.517,0,0,1,1.371-11.694,9.518,9.518,0,0,1,7.134-5.978c-.758-3.825-2.775-6.341-8.146-6.341-8.612,0-8.612,6.451-8.612,14.408a14.8,14.8,0,0,0,5.741,11.9V34.09c-9.727.887-17.205,6.224-17.205,12.677H15.08a18.745,18.745,0,0,1,2.153-1.838Z" transform="translate(-2.571 -5.144)" fill="#9b9b9b"/>
</svg>
